<?xml version="1.0" encoding="UTF-8"?>
<svg xmlns="http://www.w3.org/2000/svg" viewBox="0 0 841.89 297.64">
  <defs>
    <style>

      .cls-1, .cls-2, .cls-3 {
        stroke-width: 0px;
      }

      .cls-2 {
        fill: #d4ff00;
      }

      .cls-3 {
        fill: #fff;
      }
    </style>
  </defs>
  <g id="Logo_s" data-name="Logo&amp;apos;s">
    <rect class="cls-2" x="58.14" y="65.15" width="162.38" height="162.38"/>
    <g>
      <path class="cls-3" d="M311.46,155.39l39.67-43.84h41.06l-43.84,45.47,49.18,70.52h-39.9l-32.24-46.86-13.92,14.38v32.48h-34.79V65.15h34.79v90.24Z"/>
      <path class="cls-3" d="M445.07,227.53h-34.79V65.15h34.79v162.38Z"/>
      <path class="cls-3" d="M460.15,170c0-8.66,1.51-16.78,4.52-24.36,3.01-7.58,7.07-14.23,12.18-19.95,5.1-5.72,11.13-10.21,18.09-13.45,6.96-3.25,14.38-4.87,22.27-4.87,6.8,0,13.22,1.2,19.25,3.6s11.52,5.76,16.47,10.09v-9.51h34.79v115.98h-34.79v-8.58c-4.95,4.33-10.44,7.7-16.47,10.09-6.03,2.4-12.45,3.6-19.25,3.6-7.89,0-15.31-1.62-22.27-4.87-6.96-3.25-12.99-7.73-18.09-13.45-5.1-5.72-9.16-12.37-12.18-19.95-3.02-7.58-4.52-15.69-4.52-24.36ZM493.09,169.77c0,4.33.81,8.47,2.44,12.41,1.62,3.95,3.83,7.39,6.61,10.32,2.78,2.94,6.07,5.26,9.86,6.96,3.79,1.7,7.77,2.55,11.95,2.55s8.16-.85,11.95-2.55c3.79-1.7,7.07-4.02,9.86-6.96,2.78-2.94,4.99-6.38,6.61-10.32,1.62-3.94,2.44-8.08,2.44-12.41s-.81-8.2-2.44-12.06c-1.62-3.86-3.83-7.27-6.61-10.21-2.78-2.94-6.07-5.26-9.86-6.96-3.79-1.7-7.77-2.55-11.95-2.55s-8.16.85-11.95,2.55c-3.79,1.7-7.08,4.02-9.86,6.96-2.78,2.94-4.99,6.34-6.61,10.21-1.62,3.87-2.44,7.89-2.44,12.06Z"/>
      <path class="cls-3" d="M649.66,229.38l-49.18-117.84h35.95l28.53,72.61,28.3-72.61h35.96l-51.5,131.29c-4.95,12.53-11.29,21.92-19.02,28.18-7.74,6.26-17.48,9.39-29.23,9.39h-13.69v-27.83h9.74c5.1,0,9.31-1.43,12.64-4.29,3.32-2.86,6.22-7.08,8.7-12.64l2.78-6.26Z"/>
      <path class="cls-3" d="M807.63,140.31c-10.06,0-17.71,2.78-22.97,8.35-5.26,5.57-7.89,12.99-7.89,22.27v56.6h-34.79v-115.98h34.79v12.76c3.25-5.41,7.81-9.51,13.69-12.3,5.88-2.78,11.6-4.18,17.17-4.18v32.48Z"/>
    </g>
    <polygon class="cls-1" points="173.32 103.85 173.32 188.82 156.32 188.82 156.32 171.83 105.34 171.83 105.34 120.85 122.33 120.85 122.33 137.84 156.32 137.84 156.32 120.85 139.33 120.85 139.33 103.85 173.32 103.85"/>
  </g>
</svg>
